<svg id="Books" xmlns="http://www.w3.org/2000/svg" width="24" height="24" viewBox="0 0 24 24">
  <g id="collections_bookmark_black_24dp">
    <path id="Path_4581" data-name="Path 4581" d="M0,0H24V24H0Z" fill="none"/>
    <path id="Path_4582" data-name="Path 4582" d="M17,20H5a1,1,0,0,1-1-1V7A1,1,0,0,0,2,7V20a2.006,2.006,0,0,0,2,2H17a1,1,0,0,0,0-2ZM20,2H8A2.006,2.006,0,0,0,6,4V16a2.006,2.006,0,0,0,2,2H20a2.006,2.006,0,0,0,2-2V4A2.006,2.006,0,0,0,20,2Zm0,10-2.5-1.5L15,12V4h5Z" fill="#fff"/>
  </g>
</svg>
