<svg id="Expand_All" data-name="Expand All" xmlns="http://www.w3.org/2000/svg" xmlns:xlink="http://www.w3.org/1999/xlink" width="24" height="24" viewBox="0 0 24 24">
  <defs>
    <linearGradient id="linear-gradient" x1="0.5" x2="0.5" y2="1" gradientUnits="objectBoundingBox">
      <stop offset="0" stop-color="#00b1ff"/>
      <stop offset="1" stop-color="#0377ff"/>
    </linearGradient>
  </defs>
  <g id="keyboard_double_arrow_down_black_24dp">
    <g id="Group_13793" data-name="Group 13793">
      <rect id="Rectangle_5551" data-name="Rectangle 5551" width="24" height="24" fill="none"/>
      <rect id="Rectangle_5552" data-name="Rectangle 5552" width="24" height="24" fill="none"/>
    </g>
    <g id="Group_13795" data-name="Group 13795" transform="translate(6.407 5.407)">
      <g id="Group_13794" data-name="Group 13794">
        <path id="Path_4536" data-name="Path 4536" d="M17.29,5.71h0a1,1,0,0,0-1.41,0L12,9.58,8.11,5.7a1,1,0,0,0-1.41,0h0a1,1,0,0,0,0,1.41l4.59,4.59a1,1,0,0,0,1.41,0l4.59-4.59A.984.984,0,0,0,17.29,5.71Z" transform="translate(-6.407 -5.407)" fill="url(#linear-gradient)"/>
        <path id="Path_4537" data-name="Path 4537" d="M17.29,12.3h0a1,1,0,0,0-1.41,0L12,16.17,8.12,12.29a1,1,0,0,0-1.41,0h0a1,1,0,0,0,0,1.41l4.59,4.59a1,1,0,0,0,1.41,0L17.3,13.7A.993.993,0,0,0,17.29,12.3Z" transform="translate(-6.407 -5.407)" fill="url(#linear-gradient)"/>
      </g>
    </g>
  </g>
</svg>
