<svg id="Notifications" xmlns="http://www.w3.org/2000/svg" xmlns:xlink="http://www.w3.org/1999/xlink" width="24" height="24" viewBox="0 0 24 24">
  <defs>
    <linearGradient id="linear-gradient" x1="0.5" x2="0.5" y2="1" gradientUnits="objectBoundingBox">
      <stop offset="0" stop-color="#00b1ff"/>
      <stop offset="1" stop-color="#0377ff"/>
    </linearGradient>
  </defs>
  <g id="notifications_black_24dp">
    <path id="Path_4531" data-name="Path 4531" d="M0,0H24V24H0Z" fill="none"/>
    <path id="Path_4532" data-name="Path 4532" d="M12,22a2.006,2.006,0,0,0,2-2H10A2,2,0,0,0,12,22Zm6-6V11c0-3.07-1.64-5.64-4.5-6.32V4a1.5,1.5,0,0,0-3,0v.68C7.63,5.36,6,7.92,6,11v5L4.71,17.29A1,1,0,0,0,5.41,19H18.58a1,1,0,0,0,.71-1.71Z" fill="url(#linear-gradient)"/>
  </g>
</svg>
